<?xml version="1.0" encoding="UTF-8" standalone="no"?>
<!-- Created with Inkscape (http://www.inkscape.org/) -->

<svg
   width="500"
   height="500"
   viewBox="0 0 132.29166 132.29167"
   version="1.1"
   id="svg5"
   inkscape:version="1.1.2 (b8e25be833, 2022-02-05)"
   sodipodi:docname="favicon.svg"
   xmlns:inkscape="http://www.inkscape.org/namespaces/inkscape"
   xmlns:sodipodi="http://sodipodi.sourceforge.net/DTD/sodipodi-0.dtd"
   xmlns="http://www.w3.org/2000/svg"
   xmlns:svg="http://www.w3.org/2000/svg">
  <sodipodi:namedview
     id="namedview7"
     pagecolor="#ffffff"
     bordercolor="#666666"
     borderopacity="1.0"
     inkscape:pageshadow="2"
     inkscape:pageopacity="0.0"
     inkscape:pagecheckerboard="0"
     inkscape:document-units="mm"
     showgrid="false"
     units="px"
     width="500px"
     inkscape:zoom="0.46235269"
     inkscape:cx="375.25465"
     inkscape:cy="289.82204"
     inkscape:window-width="1366"
     inkscape:window-height="705"
     inkscape:window-x="-8"
     inkscape:window-y="-8"
     inkscape:window-maximized="1"
     inkscape:current-layer="layer1" />
  <defs
     id="defs2" />
  <g
     inkscape:label="Layer 1"
     inkscape:groupmode="layer"
     id="layer1">
    <path
       style="fill:#6fd3fa;fill-opacity:1;stroke-width:0.264583"
       d="m 13.082036,129.23473 c -2.48439,-0.66871 -4.3166205,-1.75026 -6.2638605,-3.69749 -4.28125,-4.28126 -5.28255,-10.18678 -2.59662,-15.31461 0.52865,-1.00928 5.36864,-6.02324 19.3544905,-20.050216 l 18.64956,-18.704355 -1.22047,-2.59469 c -5.04642,-10.72858 -5.77976,-22.97577 -2.05265,-34.2806 1.12105,-3.40032 4.15545,-9.37082 6.28531,-12.36702 2.2923,-3.22471 7.69216,-8.624567 10.916869,-10.916867 2.99619,-2.1298595 8.966697,-5.1642695 12.367016,-6.2853195 9.414423,-3.10386 19.826533,-3.10386 29.240963,0 3.400316,1.12105 9.370816,4.15546 12.367006,6.2853195 3.24125,2.30406 8.63949,7.708367 10.90459,10.916867 3.24112,4.59102 5.87249,10.26577 7.17828,15.48049 1.07414,4.28957 1.34529,6.60895 1.34529,11.50701 0,4.89807 -0.27115,7.21744 -1.34529,11.50702 -1.30579,5.21472 -3.93716,10.88947 -7.17828,15.48048 -2.27665,3.224845 -7.67974,8.627935 -10.90459,10.904585 -13.794986,9.73886 -31.535516,11.35325 -46.647605,4.24494 l -2.59469,-1.22047 -18.704359,18.649566 c -14.02697,13.98586 -19.04092,18.82584 -20.05021,19.3545 -2.69914,1.41379 -6.27309,1.8485 -9.05075,1.10086 z m 4.80035,-8.45064 c 0.45856,-0.2177 8.70053,-8.28418 18.31549,-17.92552 l 17.48174,-17.529696 -3.37388,-3.33061 -3.37388,-3.33061 -17.72694,17.7504 c -19.15948,19.184836 -18.3634,18.268406 -17.92044,20.629586 0.38606,2.05789 2.83417,4.13159 4.87812,4.13207 0.48733,1.1e-4 1.26124,-0.17791 1.71979,-0.39562 z M 90.266354,86.653834 c 13.632106,-2.67202 24.793666,-12.548455 29.110636,-25.758885 1.36365,-4.17295 1.71476,-6.56483 1.71476,-11.6817 0,-5.11686 -0.35111,-7.50874 -1.71476,-11.68169 -1.92455,-5.88935 -4.90975,-10.7292 -9.36685,-15.18629 C 99.982984,13.768972 89.294864,9.3208522 76.191584,11.727292 c -7.768,1.55162 -14.374719,5.074 -19.915809,10.618127 -5.420689,5.42366 -8.873609,11.75664 -10.471969,19.20654 -0.78682,3.66735 -0.8625,11.05762 -0.14964,14.61203 1.56063,7.78147 5.07709,14.37593 10.620009,19.91581 6.06805,6.064715 13.535066,9.784385 21.977299,10.947895 2.595,0.35765 9.35663,0.14734 12.01488,-0.3737 z"
       id="path39"
       sodipodi:nodetypes="sssscsssssssssssssscssssscccsssscsssccssssscc" />
  </g>
</svg>
